<svg width="24" height="24" viewBox="0 0 24 24" fill="none" xmlns="http://www.w3.org/2000/svg">
<path d="M4.84998 11.5V5C4.84998 3.89543 5.74541 3 6.84998 3H18.85C19.9545 3 20.85 3.89543 20.85 5V19C20.85 20.1046 19.9545 21 18.85 21H17" stroke="#92003B" stroke-width="1.4" stroke-linecap="round" stroke-linejoin="round"/>
<path d="M12.7815 16.6971C12.7595 16.4753 12.665 16.3029 12.4981 16.18C12.3313 16.0572 12.1048 15.9957 11.8187 15.9957C11.6244 15.9957 11.4602 16.0232 11.3264 16.0782C11.1925 16.1314 11.0898 16.2057 11.0183 16.301C10.9486 16.3964 10.9138 16.5046 10.9138 16.6256C10.9101 16.7265 10.9312 16.8145 10.9771 16.8897C11.0247 16.9649 11.0898 17.03 11.1723 17.085C11.2549 17.1382 11.3502 17.1849 11.4584 17.2253C11.5666 17.2638 11.6821 17.2968 11.805 17.3243L12.3111 17.4453C12.5568 17.5003 12.7824 17.5737 12.9878 17.6654C13.1931 17.757 13.371 17.8698 13.5214 18.0037C13.6717 18.1375 13.7882 18.2952 13.8707 18.4768C13.9551 18.6583 13.9981 18.8665 14 19.1012C13.9981 19.4459 13.9101 19.7448 13.7359 19.9979C13.5636 20.2491 13.3142 20.4444 12.9878 20.5838C12.6632 20.7213 12.2717 20.7901 11.8132 20.7901C11.3585 20.7901 10.9624 20.7204 10.625 20.581C10.2894 20.4416 10.0272 20.2354 9.83829 19.9621C9.65125 19.6871 9.55314 19.3469 9.54398 18.9416H10.6965C10.7093 19.1305 10.7634 19.2882 10.8588 19.4147C10.956 19.5394 11.0852 19.6339 11.2466 19.6981C11.4098 19.7604 11.5941 19.7916 11.7995 19.7916C12.0012 19.7916 12.1763 19.7622 12.3249 19.7036C12.4752 19.6449 12.5917 19.5633 12.6742 19.4588C12.7567 19.3542 12.798 19.2341 12.798 19.0984C12.798 18.9719 12.7604 18.8655 12.6852 18.7794C12.6118 18.6932 12.5036 18.6198 12.3606 18.5593C12.2194 18.4988 12.0461 18.4438 11.8407 18.3943L11.2274 18.2402C10.7524 18.1247 10.3774 17.9441 10.1024 17.6984C9.82729 17.4526 9.69068 17.1216 9.69251 16.7054C9.69068 16.3643 9.78145 16.0663 9.96482 15.8114C10.15 15.5565 10.404 15.3576 10.7267 15.2145C11.0495 15.0715 11.4162 15 11.827 15C12.2451 15 12.61 15.0715 12.9217 15.2145C13.2353 15.3576 13.4792 15.5565 13.6534 15.8114C13.8276 16.0663 13.9175 16.3616 13.923 16.6971H12.7815Z" fill="#92003B"/>
<path d="M7.56361 15.0771H8.74088V19.0049C8.74088 19.368 8.65928 19.6834 8.49607 19.9512C8.3347 20.2189 8.11007 20.4252 7.82217 20.57C7.53427 20.7149 7.19961 20.7873 6.81819 20.7873C6.47895 20.7873 6.17088 20.7278 5.89398 20.6086C5.61892 20.4875 5.4007 20.3042 5.23934 20.0584C5.07797 19.8109 4.9982 19.5001 5.00003 19.126H6.18555C6.18922 19.2745 6.21947 19.402 6.27632 19.5083C6.335 19.6128 6.41477 19.6935 6.51562 19.7504C6.61831 19.8054 6.73934 19.8329 6.87871 19.8329C7.02541 19.8329 7.14918 19.8017 7.25004 19.7394C7.35273 19.6752 7.43066 19.5817 7.48384 19.4588C7.53702 19.3359 7.56361 19.1847 7.56361 19.0049V15.0771Z" fill="#92003B"/>
</svg>