<svg width="24" height="24" viewBox="0 0 24 24" fill="none" xmlns="http://www.w3.org/2000/svg">
<path d="M8.30523 13.7027L8.80523 15.1622L12 16.6216L15.5 15.1622L16 11L16.3807 7.37838H7.5M16 11L8.5 10.9692M6.085 18.7865L11.6495 20.8688C11.8755 20.9534 12.1245 20.9534 12.3505 20.8688L17.915 18.7865C18.273 18.6525 18.5233 18.3263 18.5599 17.9458L19.8944 4.09591C19.951 3.50845 19.4892 3 18.899 3H5.10099C4.5108 3 4.04899 3.50845 4.1056 4.09591L5.44009 17.9458C5.47675 18.3263 5.72704 18.6525 6.085 18.7865Z" stroke="#92003B" stroke-width="1.4" stroke-linecap="round" stroke-linejoin="round"/>
</svg>