<svg width="24" height="24" viewBox="0 0 24 24" fill="none" xmlns="http://www.w3.org/2000/svg">
<path d="M14.9103 11.2688C14.6783 10.3426 14.0157 9.58708 13.1477 9.22736C12.7941 9.08085 12.4065 9 12 9C10.8896 9 9.92006 9.6033 9.40135 10.5C9.14609 10.9413 9 11.4536 9 12C9 12.8587 9.36073 13.633 9.93892 14.1799C10.4764 14.6883 11.2018 15 12 15C12.837 15 13.594 14.6572 14.1382 14.1043C14.6712 13.5628 15 12.8198 15 12C15 11.7478 14.9689 11.5029 14.9103 11.2688ZM14.1382 14.1043L16.5 16.6771M16.5 16.6771C16.1888 17.0297 16 17.4928 16 18C16 19.1046 16.8954 20 18 20C19.1046 20 20 19.1046 20 18C20 16.8954 19.1046 16 18 16C17.4027 16 16.8665 16.2619 16.5 16.6771ZM14.9103 11.2688L17.0854 11M17.0854 11C17.2913 11.5826 17.8469 12 18.5 12C19.3284 12 20 11.3284 20 10.5C20 9.67157 19.3284 9 18.5 9C17.6716 9 17 9.67157 17 10.5C17 10.6753 17.0301 10.8436 17.0854 11ZM14 6.91465C14.1564 6.96992 14.3247 7 14.5 7C15.3284 7 16 6.32843 16 5.5C16 4.67157 15.3284 4 14.5 4C13.6716 4 13 4.67157 13 5.5C13 6.15311 13.4174 6.70873 14 6.91465ZM14 6.91465L13.1477 9.22736M7.16781 8.62383C7.67185 8.2607 8 7.66867 8 7C8 5.89543 7.10457 5 6 5C4.89543 5 4 5.89543 4 7C4 8.10457 4.89543 9 6 9C6.4359 9 6.83923 8.86055 7.16781 8.62383ZM7.16781 8.62383L9.40135 10.5M9.93892 14.1799L7.5 17.3819M7.5 17.3819C7.23462 17.1444 6.88418 17 6.5 17C5.67157 17 5 17.6716 5 18.5C5 19.3284 5.67157 20 6.5 20C7.32843 20 8 19.3284 8 18.5C8 18.0558 7.80687 17.6566 7.5 17.3819Z" stroke="#92003B" stroke-width="1.4"/>
</svg>