<svg width="24" height="24" viewBox="0 0 24 24" fill="none" xmlns="http://www.w3.org/2000/svg">
<path d="M16.9899 3H7.0101C7.00452 3 7 3.00452 7 3.0101V4.1463C7 4.99961 7.39725 5.80428 8.07467 6.32315C9.50756 7.42069 9.50756 9.57931 8.07467 10.6768C7.39725 11.1957 7 12.0004 7 12.8537V13.9899C7 13.9955 7.00452 14 7.0101 14H10.4664C10.4849 14 10.5 14.0151 10.5 14.0336V14.6459C10.5 16.8517 11.0136 19.0271 12 21C12.9864 19.0271 13.5 16.8517 13.5 14.6459V14.0336C13.5 14.0151 13.5151 14 13.5336 14H16.9899C16.9955 14 17 13.9955 17 13.9899V12.8537C17 12.0004 16.6027 11.1957 15.9253 10.6768C14.4924 9.57931 14.4924 7.42069 15.9253 6.32315C16.6027 5.80428 17 4.99961 17 4.1463V3.0101C17 3.00452 16.9955 3 16.9899 3Z" stroke="#92003B" stroke-width="1.4" stroke-linecap="round" stroke-linejoin="round"/>
</svg>