<svg width="24" height="24" viewBox="0 0 24 24" fill="none" xmlns="http://www.w3.org/2000/svg">
<path d="M10.5 18C7.23445 18 4.45636 15.913 3.42676 13M10.5 18C7 13 7 8 10.5 3M10.5 18C10.5102 17.9855 10 18 11 18M3.42676 13C3.15039 12.2181 3 11.3766 3 10.5C3 9.62341 3.15039 8.78195 3.42676 8M3.42676 13H9.5M10.5 3C7.23445 3 4.45636 5.08702 3.42676 8M10.5 3C13.7655 3 16.5436 5.08702 17.5732 8M10.5 3C11.9151 5.02158 12.7581 7.04316 13.0289 9.06475M3.42676 8H17.5732M17.5732 8C17.6877 8.32371 17.7805 8.65762 17.85 9M16 14V16H18M11 16C11 13.2386 13.2386 11 16 11C18.7614 11 21 13.2386 21 16C21 18.7614 18.7614 21 16 21C13.2386 21 11 18.7614 11 16Z" stroke="#0B0C0E" stroke-width="1.4" stroke-linecap="round" stroke-linejoin="round"/>
</svg>
