<svg width="24" height="24" viewBox="0 0 24 24" fill="none" xmlns="http://www.w3.org/2000/svg">
<path d="M3 12L6.5 12M21 12H17.5M17.5 12V16M17.5 12H12M12 12V8M12 12L6.5 12M6.5 12V16" stroke="#0B0C0E" stroke-width="1.4" stroke-linecap="round"/>
<path d="M14 18.5C14 17.1193 15.1193 16 16.5 16H18.5C19.8807 16 21 17.1193 21 18.5V18.5C21 19.8807 19.8807 21 18.5 21H16.5C15.1193 21 14 19.8807 14 18.5V18.5Z" stroke="#0B0C0E" stroke-width="1.4" stroke-linejoin="round"/>
<path d="M8 5.5C8 4.11929 9.11929 3 10.5 3H13.5C14.8807 3 16 4.11929 16 5.5V5.5C16 6.88071 14.8807 8 13.5 8H10.5C9.11929 8 8 6.88071 8 5.5V5.5Z" stroke="#0B0C0E" stroke-width="1.4" stroke-linejoin="round"/>
<path d="M3 18.5C3 17.1193 4.11929 16 5.5 16H7.5C8.88071 16 10 17.1193 10 18.5V18.5C10 19.8807 8.88071 21 7.5 21H5.5C4.11929 21 3 19.8807 3 18.5V18.5Z" stroke="#0B0C0E" stroke-width="1.4" stroke-linejoin="round"/>
</svg>
