<svg xmlns="http://www.w3.org/2000/svg" width="24" height="24" viewBox="0 0 24 24" fill="none">
<path d="M12 3H19C20.1046 3 21 3.89543 21 5V15M21 15L17.4142 11.4142C16.6332 10.6332 15.3668 10.6332 14.5858 11.4142L12 14M21 15V19C21 20.1046 20.1046 21 19 21H15M12 21H15M15 21L12 18" stroke="#8891A5" stroke-width="1.4" stroke-linecap="round" stroke-linejoin="round"/>
<path d="M3 17V19C3 20.1046 3.89543 21 5 21H12V3H5C3.89543 3 3 3.89543 3 5V17ZM3 17L5.58579 14.4142C6.36684 13.6332 7.63316 13.6332 8.41421 14.4142L10 16M10 16L12 14M10 16L12 18M11 7.5C11 8.32843 10.3284 9 9.5 9C8.67157 9 8 8.32843 8 7.5C8 6.67157 8.67157 6 9.5 6C10.3284 6 11 6.67157 11 7.5Z" stroke="#0B0C0E" stroke-width="1.4" stroke-linecap="round"/>
</svg>