<svg width="24" height="24" viewBox="0 0 24 24" fill="none" xmlns="http://www.w3.org/2000/svg">
<path d="M21 5C19.8954 5 19 5.89543 19 7V17C19 18.1046 19.8954 19 21 19M3 5C4.10457 5 5 5.89543 5 7V17C5 18.1046 4.10457 19 3 19M16 7V17C16 18.1046 15.1046 19 14 19H10C8.89543 19 8 18.1046 8 17V7C8 5.89543 8.89543 5 10 5H14C15.1046 5 16 5.89543 16 7Z" stroke="#0B0C0E" stroke-width="1.4" stroke-linecap="round"/>
<path d="M11 13.5839V10.4161C11 10.2484 11.194 10.1552 11.3249 10.26L13.3048 11.8438C13.4049 11.9239 13.4049 12.0761 13.3048 12.1562L11.3249 13.74C11.194 13.8448 11 13.7516 11 13.5839Z" fill="#0B0C0E"/>
</svg>