<svg width="24" height="24" viewBox="0 0 24 24" fill="none" xmlns="http://www.w3.org/2000/svg">
<path d="M17.4547 9.5V5C17.4547 3.89543 16.5592 3 15.4547 3H6.45465C5.35008 3 4.45465 3.89543 4.45465 5V19C4.45465 20.1046 5.35008 21 6.45465 21H11.5135M7.45465 7H14.4547M7.45465 10H11.4547" stroke="#0B0C0E" stroke-width="1.4" stroke-linecap="round" stroke-linejoin="round"/>
<path d="M17.8136 13V18H16.6946V13H17.8136ZM19.7804 15.1085V15.9739H17.5013V15.1085H19.7804ZM20 13V13.8688H17.5013V13H20Z" fill="#0B0C0E"/>
<path d="M13.9297 18H12.8313L12.8382 17.1346H13.9297C14.1791 17.1346 14.3896 17.0774 14.5612 16.9629C14.7329 16.8461 14.8633 16.6744 14.9525 16.4478C15.0418 16.2189 15.0864 15.9407 15.0864 15.6133V15.3832C15.0864 15.136 15.0612 14.9185 15.0109 14.7308C14.9605 14.5407 14.8862 14.3816 14.7878 14.2534C14.6894 14.1252 14.567 14.0291 14.4205 13.965C14.2763 13.9009 14.1105 13.8688 13.9228 13.8688H12.8107V13H13.9228C14.2615 13 14.5704 13.0572 14.8496 13.1717C15.131 13.2862 15.3736 13.4499 15.5772 13.6628C15.7832 13.8757 15.9422 14.1275 16.0543 14.4183C16.1664 14.709 16.2225 15.033 16.2225 15.3901V15.6133C16.2225 15.9682 16.1664 16.2921 16.0543 16.5852C15.9422 16.8759 15.7832 17.1277 15.5772 17.3407C15.3736 17.5513 15.1322 17.7138 14.853 17.8283C14.5738 17.9428 14.2661 18 13.9297 18ZM13.4663 13V18H12.3474V13H13.4663Z" fill="#0B0C0E"/>
<path d="M9.97019 16.2624H8.71394V15.3935H9.97019C10.1555 15.3935 10.3043 15.3626 10.4164 15.3008C10.5308 15.239 10.6143 15.1543 10.667 15.0467C10.7219 14.9368 10.7493 14.8132 10.7493 14.6758C10.7493 14.5339 10.7219 14.4022 10.667 14.2809C10.6143 14.1573 10.5308 14.0577 10.4164 13.9821C10.3043 13.9066 10.1555 13.8688 9.97019 13.8688H9.11896V18H8V13H9.97019C10.3683 13 10.7093 13.0721 10.993 13.2163C11.2791 13.3606 11.4976 13.5586 11.6486 13.8104C11.8019 14.06 11.8786 14.3462 11.8786 14.669C11.8786 14.9918 11.8019 15.2722 11.6486 15.5103C11.4976 15.7484 11.2791 15.9338 10.993 16.0666C10.7093 16.1971 10.3683 16.2624 9.97019 16.2624Z" fill="#0B0C0E"/>
</svg>