<svg width="24" height="24" viewBox="0 0 24 24" fill="none" xmlns="http://www.w3.org/2000/svg">
<path d="M6 15V13C6 12.4477 6.44772 12 7 12H12M18 15V13C18 12.4477 17.5523 12 17 12H12M12 12V9M11 9H13C14.1046 9 15 8.10457 15 7V5C15 3.89543 14.1046 3 13 3H11C9.89543 3 9 3.89543 9 5V7C9 8.10457 9.89543 9 11 9ZM17 21H19C20.1046 21 21 20.1046 21 19V17C21 15.8954 20.1046 15 19 15H17C15.8954 15 15 15.8954 15 17V19C15 20.1046 15.8954 21 17 21ZM5 21H7C8.10457 21 9 20.1046 9 19V17C9 15.8954 8.10457 15 7 15H5C3.89543 15 3 15.8954 3 17V19C3 20.1046 3.89543 21 5 21Z" stroke="#0B0C0E" stroke-width="1.4" stroke-linecap="round"/>
</svg>
