<svg xmlns="http://www.w3.org/2000/svg" width="24" height="24" viewBox="0 0 24 24" fill="none">
<path d="M5 2.5V5.5M5 5.5C6.10457 5.5 7 6.39543 7 7.5C7 8.60457 6.10457 9.5 5 9.5M5 5.5C3.89543 5.5 3 6.39543 3 7.5C3 8.60457 3.89543 9.5 5 9.5M5 9.5V14.5M5 14.5C6.10457 14.5 7 15.3954 7 16.5C7 17.6046 6.10457 18.5 5 18.5M5 14.5C3.89543 14.5 3 15.3954 3 16.5C3 17.6046 3.89543 18.5 5 18.5M5 18.5V21.5M21 16.5C21 15.1193 19.8807 14 18.5 14H12.5C11.1193 14 10 15.1193 10 16.5C10 17.8807 11.1193 19 12.5 19H18.5C19.8807 19 21 17.8807 21 16.5ZM21 7.5C21 6.11929 19.8807 5 18.5 5H12.5C11.1193 5 10 6.11929 10 7.5C10 8.88071 11.1193 10 12.5 10H18.5C19.8807 10 21 8.88071 21 7.5Z" stroke="#0B0C0E" stroke-width="1.4" stroke-linecap="round"/>
</svg>