<svg width="24" height="24" viewBox="0 0 24 24" fill="none" xmlns="http://www.w3.org/2000/svg">
<path d="M21 17V18C21 19.1046 20.1046 20 19 20H14M21 17V7V6C21 4.89543 20.1046 4 19 4H5C3.89543 4 3 4.89543 3 6V7V16M21 17L16.5801 12.5801C15.7372 11.7372 14.3488 11.8141 13.6041 12.7449L11 16M3 16V18C3 19.1046 3.89543 20 5 20H14M3 16L6.3887 13.289C7.27034 12.5837 8.56066 12.7475 9.23809 13.6508L11 16M14 20L11 16M10.5 10C9.67157 10 9 9.32843 9 8.5C9 7.67157 9.67157 7 10.5 7C11.3284 7 12 7.67157 12 8.5C12 9.32843 11.3284 10 10.5 10Z" stroke="#0B0C0E" stroke-width="1.4" stroke-linejoin="round"/>
</svg>
