<svg width="24" height="24" viewBox="0 0 24 24" fill="none" xmlns="http://www.w3.org/2000/svg">
<path d="M5.7 15V14C5.7 12.8954 6.50589 12 7.5 12H9.75C10.7441 12 11.55 12.8954 11.55 14V15M14 9H18M14 12H18M14 15H18M19.2 5H4.8C3.80589 5 3 5.89543 3 7V17C3 17.8284 3.80589 18.5 4.8 18.5H19.2C20.1941 18.5 21 17.8284 21 17V7C21 5.89543 20.1941 5 19.2 5ZM9.48673 9C9.48673 9.55228 9.03901 10 8.48673 10C7.93444 10 7.48673 9.55228 7.48673 9C7.48673 8.44772 7.93444 8 8.48673 8C9.03901 8 9.48673 8.44772 9.48673 9Z" stroke="#0B0C0E" stroke-width="1.4" stroke-linecap="round"/>
</svg>