<svg width="24" height="24" viewBox="0 0 24 24" fill="none" xmlns="http://www.w3.org/2000/svg">
<path d="M19 5H5C3.89543 5 3 5.89543 3 7V17C3 18.1046 3.89543 19 5 19H19C20.1046 19 21 18.1046 21 17V7C21 5.89543 20.1046 5 19 5Z" stroke="#0B0C0E" stroke-width="1.4"/>
<path d="M9 10H7.5M6 14H7.5M7.5 9V10M7.5 10H7C6.44772 10 6 10.4477 6 11C6 11.5523 6.44772 12 7 12H7.5H8C8.55228 12 9 12.4477 9 13C9 13.5523 8.55228 14 8 14H7.5M7.5 14V15M11.866 13.5H15.866M11.866 10.5H17.866" stroke="#0B0C0E" stroke-width="1.4" stroke-linecap="round"/>
</svg>