<svg width="24" height="24" viewBox="0 0 24 24" fill="none" xmlns="http://www.w3.org/2000/svg">
<path d="M18 6H19C20.1046 6 21 6.89543 21 8V16C21 17.1046 20.1046 18 19 18H18M6 6H5C3.89543 6 3 6.89543 3 8V16C3 17.1046 3.89543 18 5 18H6M13.5 7H12M10.5 11H12M12 6V7M12 7H11.5C10.9477 7 10.5 7.44772 10.5 8C10.5 8.55228 10.9477 9 11.5 9H12H12.5C13.0523 9 13.5 9.44772 13.5 10C13.5 10.5523 13.0523 11 12.5 11H12M12 11V12M10 18H14M9 15H15M18 5V19C18 20.1046 17.1046 21 16 21H8C6.89543 21 6 20.1046 6 19V5C6 3.89543 6.89543 3 8 3H16C17.1046 3 18 3.89543 18 5Z" stroke="#0B0C0E" stroke-width="1.4" stroke-linecap="round"/>
</svg>
