<svg width="24" height="24" viewBox="0 0 24 24" fill="none" xmlns="http://www.w3.org/2000/svg">
<path d="M10 10H21V5C21 3.89543 20.1046 3 19 3L10 3M10 10H3V5C3 3.89543 3.89543 3 5 3L10 3M10 10V3M7 6.5C7 6.77614 6.77614 7 6.5 7C6.22386 7 6 6.77614 6 6.5C6 6.22386 6.22386 6 6.5 6C6.77614 6 7 6.22386 7 6.5Z" stroke="black" stroke-width="1.4" stroke-linecap="round"/>
<path d="M3 8V19C3 20.1046 3.89543 21 5 21H19C20.1046 21 21 20.1046 21 19V8" stroke="black" stroke-width="1.4" stroke-linecap="round"/>
</svg>