<svg width="24" height="24" viewBox="0 0 24 24" fill="none" xmlns="http://www.w3.org/2000/svg">
<path d="M5 9H4C3.44772 9 3 9.44772 3 10V19M5 9V7C5 6.44772 5.44772 6 6 6H7M5 9H19M19 9H20C20.5523 9 21 9.44772 21 10V17M19 9V7C19 6.44772 18.5523 6 18 6H17M7 6V4C7 3.44772 7.44772 3 8 3H16C16.5523 3 17 3.44772 17 4V6M7 6H17M3 19V20C3 20.5523 3.44772 21 4 21H13M3 19L6.29289 15.7071C6.68342 15.3166 7.31658 15.3166 7.70711 15.7071L10 18M13 21H20C20.5523 21 21 20.5523 21 20V17M13 21L10 18M10 18L15.2929 12.7071C15.6834 12.3166 16.3166 12.3166 16.7071 12.7071L21 17M10 12.5C10 12.2239 9.77614 12 9.5 12C9.22386 12 9 12.2239 9 12.5C9 12.7761 9.22386 13 9.5 13C9.77614 13 10 12.7761 10 12.5Z" stroke="#0B0C0E" stroke-width="1.4" stroke-linecap="round" stroke-linejoin="round"/>
</svg>
