<svg width="24" height="24" viewBox="0 0 24 24" fill="none" xmlns="http://www.w3.org/2000/svg">
<path d="M4 5H4.91996C5.82894 5 6.62128 5.62459 6.84174 6.51493L8.56766 13.4851C8.78812 14.3754 9.58046 15 10.4894 15H16.9562C17.7934 15 18.5401 14.4687 18.8217 13.6727L19.8829 10.6727C20.3437 9.37019 19.3873 8 18.0174 8H9.93324M12.4094 18.5C12.4094 19.3284 11.7442 20 10.9237 20C10.1032 20 9.43801 19.3284 9.43801 18.5C9.43801 17.6716 10.1032 17 10.9237 17C11.7442 17 12.4094 17.6716 12.4094 18.5ZM18.3522 18.5C18.3522 19.3284 17.687 20 16.8665 20C16.046 20 15.3808 19.3284 15.3808 18.5C15.3808 17.6716 16.046 17 16.8665 17C17.687 17 18.3522 17.6716 18.3522 18.5Z" stroke="#0B0C0E" stroke-width="1.4" stroke-linecap="round"/>
</svg>